<svg width="522" height="520" viewBox="0 0 522 520" fill="none" xmlns="http://www.w3.org/2000/svg">
<path d="M201.116 416.902C198.716 393.302 211.667 376.167 218.5 369C144.729 365.4 114.878 302.736 109.116 273.402C101.116 237.002 122.449 196.569 134.116 180.902C124.116 144.102 135.283 121.902 142.116 115.402C159.316 108.202 192.616 129.069 207.116 140.402C250.316 119.602 301.116 131.736 321.116 140.402C337.916 120.402 367.783 115.402 380.616 115.402C395.816 125.402 391.949 163.236 388.116 180.902C412.516 206.102 413.949 253.069 411.616 273.402C402.816 335.802 358.884 358.598 304.5 366.5C317.7 375.3 321.616 403.569 321.116 416.902V494.402C430.716 467.602 480.783 373.569 492.116 329.902C528.116 205.502 453.449 106.736 411.616 72.9023C284.816 -21.0977 160.449 33.7356 114.116 72.9023C6.91591 157.302 12.7826 279.402 29.1159 329.902C62.7159 440.302 157.783 485.569 201.116 494.402V416.902Z" stroke="black" stroke-width="40"/>
<path d="M201.116 416.902C198.716 393.302 211.667 376.167 218.5 369C144.729 365.4 114.878 302.736 109.116 273.402C101.116 237.002 122.449 196.569 134.116 180.902C124.116 144.102 135.283 121.902 142.116 115.402C159.316 108.202 192.616 129.069 207.116 140.402C250.316 119.602 301.116 131.736 321.116 140.402C337.916 120.402 367.783 115.402 380.616 115.402C395.816 125.402 391.949 163.236 388.116 180.902C412.516 206.102 413.949 253.069 411.616 273.402C402.816 335.802 358.884 358.598 304.5 366.5C317.7 375.3 321.616 403.569 321.116 416.902V494.402C430.716 467.602 480.783 373.569 492.116 329.902C528.116 205.502 453.449 106.736 411.616 72.9023C284.816 -21.0977 160.449 33.7356 114.116 72.9023C6.91591 157.302 12.7826 279.402 29.1159 329.902C62.7159 440.302 157.783 485.569 201.116 494.402V416.902Z" stroke="url(#paint0_linear)" stroke-width="40"/>
<defs>
<linearGradient id="paint0_linear" x1="9.49999" y1="253" x2="502" y2="370.5" gradientUnits="userSpaceOnUse">
<stop stop-color="#4CE352"/>
<stop offset="1" stop-color="#165F1E"/>
</linearGradient>
</defs>
</svg>
